<svg id="Layer_1" data-name="Layer 1" xmlns="http://www.w3.org/2000/svg" width="81.14mm" height="82.21mm" viewBox="0 0 229.99 233.05"><defs><style>.cls-1{fill:#ffaa1d;}.cls-2{fill:#fff;}.cls-3{fill:#8d042d;}</style></defs><title>OWL_ParisEternal_Logo__STEEL_BKGD</title><path class="cls-1" d="M114.1,294.58l-.86-6.65H86.66v20.23h0a9.66,9.66,0,0,0,9.66,9.66l16.95,0,.86-6.62H97.44a3,3,0,0,1-3-3v-2.37h17.67v-6H94.42v-5.19Z" transform="translate(-86.63 -84.88)"/><polygon class="cls-1" points="31.42 209.71 43.35 209.71 43.35 232.87 50.8 232.87 50.8 209.71 61.64 209.71 62.7 203.05 31.42 203.05 31.42 209.71"/><path class="cls-1" d="M273.25,287.93h-7.51l0,.06L252,317.92h7.45l2.82-6.11h14.54l2.83,6.11H287L273.22,288Zm.92,18.26h-9.35l4.67-10.13Z" transform="translate(-86.63 -84.88)"/><path class="cls-1" d="M214.65,299.07a11.09,11.09,0,0,0-10.8-11.14h-19v6.66h17.41a4.51,4.51,0,0,1,4.67,4.48,4.67,4.67,0,0,1-4.67,4.67h-10v-4h-7.45v18h7.45V310l8.81-.1,4.71,7.9h8.95l-5.57-9.34A10.8,10.8,0,0,0,214.65,299.07Z" transform="translate(-86.63 -84.88)"/><polygon class="cls-1" points="153.98 220.85 139.59 203.05 132.12 203.05 132.12 232.87 139.57 232.87 139.57 215.31 153.98 232.87 161.43 232.87 161.43 203.05 153.98 203.05 153.98 220.85"/><polygon class="cls-1" points="211.76 226.3 211.76 203.05 204.2 203.05 204.2 233.05 229.99 233.05 229.99 226.3 211.76 226.3"/><path class="cls-1" d="M180.88,294.58,180,288l-26.63,0v20.66h0a9.65,9.65,0,0,0,9.64,9.22l17,0,.86-6.62H164.22a3,3,0,0,1-3-3v-2.37h17.67v-6H161.2v-5.18Z" transform="translate(-86.63 -84.88)"/><path class="cls-2" d="M137.94,276.41v4.78h-1.78V269.41h2a8.89,8.89,0,0,1,2.23.21,2.9,2.9,0,0,1,1.34.78,3.33,3.33,0,0,1,1,2.5,3.2,3.2,0,0,1-1.09,2.56,4.28,4.28,0,0,1-2.92,1Zm0-1.65h.66c1.64,0,2.45-.63,2.45-1.89s-.84-1.82-2.52-1.82h-.59Z" transform="translate(-86.63 -84.88)"/><path class="cls-2" d="M175,278.33h-5l-1.31,2.86h-1.91l5.82-11.89,5.62,11.89h-1.94Zm-.72-1.67-1.75-4-1.83,4Z" transform="translate(-86.63 -84.88)"/><path class="cls-2" d="M206.28,276.17l3.65,5h-2.18l-3.36-4.82h-.32v4.82h-1.78V269.41h2.09a5.17,5.17,0,0,1,3.37.88,3.23,3.23,0,0,1,1.14,2.58,3.34,3.34,0,0,1-.72,2.15A3.16,3.16,0,0,1,206.28,276.17Zm-2.21-1.35h.57c1.68,0,2.52-.64,2.52-1.93s-.82-1.81-2.46-1.81h-.63Z" transform="translate(-86.63 -84.88)"/><path class="cls-2" d="M235.67,269.41v11.78H233.9V269.41Z" transform="translate(-86.63 -84.88)"/><path class="cls-2" d="M266.53,271.17l-1.44.85a2.37,2.37,0,0,0-.78-.91,1.72,1.72,0,0,0-1-.25,1.84,1.84,0,0,0-1.23.42,1.33,1.33,0,0,0-.49,1c0,.57.43,1,1.29,1.39l1.17.48a5,5,0,0,1,2.1,1.41,3.21,3.21,0,0,1,.66,2,3.59,3.59,0,0,1-1.08,2.68A3.69,3.69,0,0,1,263,281.4a3.59,3.59,0,0,1-2.53-.91,4.11,4.11,0,0,1-1.23-2.55l1.8-.4a3,3,0,0,0,.43,1.44,1.84,1.84,0,0,0,1.6.76,1.88,1.88,0,0,0,1.38-.56,1.91,1.91,0,0,0,.55-1.41,1.81,1.81,0,0,0-.1-.63,1.57,1.57,0,0,0-.29-.52,2.41,2.41,0,0,0-.53-.45,4.12,4.12,0,0,0-.76-.4l-1.14-.48c-1.61-.68-2.41-1.68-2.41-3a2.84,2.84,0,0,1,1-2.22,3.68,3.68,0,0,1,2.53-.9A3.53,3.53,0,0,1,266.53,271.17Z" transform="translate(-86.63 -84.88)"/><path class="cls-3" d="M215.4,177.16A24.61,24.61,0,1,0,248.76,146a23.5,23.5,0,1,1-33.36,31.19Z" transform="translate(-86.63 -84.88)"/><path class="cls-3" d="M236.28,180.69a19.38,19.38,0,0,1-15.77-4.78,19.31,19.31,0,1,0,29-25.41,19.41,19.41,0,0,1-13.18,30.19Z" transform="translate(-86.63 -84.88)"/><path class="cls-3" d="M269.36,148.64c-8.61-13.15-27.71-18-33.93-19.87s-9.21-4.1-11.13-7.35-1.11-8.36,1.91-12.52c-4.16,3-6.07,5.58-7,8l0,.09a11.83,11.83,0,0,0-.57,2.48,22,22,0,0,0,2.48,13.76c3.64,6.78,11.49,11.39,16.71,14.6s8.14,10.16,5.53,16-9.41,8.52-15.29,7.82-15.43-7-18.1-11c0,0,7.9,14.34,20.9,14.34,10.57,0,17.53-6.43,17.53-15.28S245,147,233.94,140.59a24.68,24.68,0,0,1-8.49-7.68,36.59,36.59,0,0,0,10.89,5.41c17.57,4.4,25.61,14.07,28.17,19.62s5.37,18-5.33,30.69c-15.77,16.7-34.83,7.16-41.21,1.28-5.32-4.9-11.05-15.69-15-27.58-.56-1.92-12.37-32.68-40.2-30.08s-35.69,24.88-35.13,37.18C129,199.88,155,205.71,164.32,205.2a27.66,27.66,0,0,0,12.33-3.43,20.5,20.5,0,0,1-4.77.33c-8.52-.78-15.11-8.89-15.11-16.44A16.78,16.78,0,0,1,185.62,174a18.8,18.8,0,1,0-25.07,27.27c-18-4.49-24.26-15.89-25.79-28.12-1.32-10.6,6.39-29.82,26.76-32.08,19.29-2.14,29.84,16.5,32.38,22.83a232.9,232.9,0,0,1,10.55,40.29c3.94,23.17,7.13,53.42,7.13,53.42L221.14,220s-8.49-6.46-10.78-22.57c11.62,19.32,40.29,15.82,53.57,1.64C278.68,183.33,278,161.79,269.36,148.64Z" transform="translate(-86.63 -84.88)"/><path class="cls-3" d="M164.36,145.4A25.69,25.69,0,0,0,142,183.63a26.56,26.56,0,0,1,25.72-33A26.46,26.46,0,0,1,187,159,25.67,25.67,0,0,0,164.36,145.4Z" transform="translate(-86.63 -84.88)"/><path class="cls-3" d="M169.82,159.87a21.46,21.46,0,0,1,15.67,6.78,20.82,20.82,0,1,0-36.52,20,21.49,21.49,0,0,1,20.85-26.78Z" transform="translate(-86.63 -84.88)"/><path class="cls-3" d="M245.2,106.43c9.73-.05,8.17,3.38,8.17,3.38,3.16-.5,5.15-1.68,4.71-4.37-.38-2.36-2.74-3.59-5.28-3.38-.28-2.18,2.68-4.72,2.68-4.72s-4.25-1.57-7.49,1.38a6.58,6.58,0,0,1,1.86-6.23c-1.46-1.26-5.52-.82-7.84,2.49-1.75-2.24-1.39-5.1.73-7.42-3-.56-8,2.18-9.16,6-1.85-1.9-2.88-5.91-1.05-8.73-4,2.12-7.75,5.15-7.75,11.93C224.78,106.46,236.91,106.47,245.2,106.43Z" transform="translate(-86.63 -84.88)"/><path class="cls-3" d="M253.11,113.85s-3.58,0-3.8,5.84c-.22,6.11,2,10.73,7.11,10.34,4.68-.37,5.54-5.91,2.47-8.87-2.62-2.53-6.06-3.23-6.34-5S253.11,113.85,253.11,113.85Z" transform="translate(-86.63 -84.88)"/></svg>