<?xml version="1.0" encoding="utf-8"?>
<!-- Generator: Adobe Illustrator 24.0.1, SVG Export Plug-In . SVG Version: 6.00 Build 0)  -->
<svg version="1.1" id="Layer_1" xmlns="http://www.w3.org/2000/svg" xmlns:xlink="http://www.w3.org/1999/xlink" x="0px" y="0px"
	 viewBox="0 0 403.3 403.3" style="enable-background:new 0 0 403.3 403.3;" xml:space="preserve">
<style type="text/css">
	.st0{fill:#FFFFFF;}
	.st1{fill:#3DB2E3;}
	.st2{fill:#CF4691;}
</style>
<g>
	<g>
		<polygon class="st0" points="72.8,265.7 80.2,265.7 80.2,267.5 74.6,267.5 74.6,269.2 74.6,270.8 74.6,271.8 79.4,271.8 
			79.4,273.6 74.6,273.6 74.6,275.4 74.6,278.4 72.8,278.4 		"/>
		<polygon class="st0" points="114.9,276.6 120.1,276.6 120.1,278.4 113.1,278.4 113.1,265.7 114.9,265.7 		"/>
		<path class="st0" d="M159.3,276.7c0.6,0,1.2-0.1,1.7-0.4c0.5-0.2,1-0.6,1.4-1c0.4-0.4,0.7-0.9,0.9-1.5c0.2-0.6,0.3-1.2,0.3-1.8
			c0-0.6-0.1-1.2-0.3-1.8c-0.2-0.6-0.5-1.1-0.9-1.5c-0.4-0.4-0.9-0.8-1.4-1c-0.5-0.2-1.1-0.4-1.7-0.4c-0.6,0-1.2,0.1-1.7,0.4
			c-0.5,0.2-1,0.6-1.4,1c-0.4,0.4-0.7,0.9-0.9,1.5c-0.2,0.6-0.3,1.2-0.3,1.8c0,0.6,0.1,1.2,0.3,1.8c0.2,0.6,0.5,1,0.9,1.5
			c0.4,0.4,0.9,0.7,1.4,1C158.2,276.5,158.7,276.7,159.3,276.7 M159.3,265.7c0.9,0,1.7,0.2,2.5,0.5c0.8,0.3,1.4,0.8,2,1.4
			c0.6,0.6,1,1.3,1.4,2c0.3,0.8,0.5,1.6,0.5,2.5c0,0.9-0.2,1.7-0.5,2.5c-0.3,0.8-0.8,1.4-1.4,2c-0.6,0.6-1.2,1-2,1.4
			c-0.8,0.3-1.6,0.5-2.5,0.5c-0.9,0-1.7-0.2-2.5-0.5c-0.8-0.3-1.4-0.8-2-1.4c-0.6-0.6-1-1.3-1.4-2s-0.5-1.6-0.5-2.5
			c0-0.9,0.2-1.7,0.5-2.5c0.3-0.8,0.8-1.5,1.4-2c0.6-0.6,1.2-1,2-1.4C157.6,265.8,158.5,265.7,159.3,265.7"/>
		<path class="st0" d="M203,273c0.4,0,0.7-0.1,1-0.2c0.3-0.2,0.6-0.4,0.8-0.6c0.2-0.3,0.4-0.6,0.6-0.9c0.1-0.3,0.2-0.7,0.2-1.1
			c0-0.4-0.1-0.7-0.2-1.1c-0.1-0.3-0.3-0.7-0.6-0.9c-0.2-0.3-0.5-0.5-0.8-0.6c-0.3-0.2-0.7-0.2-1-0.2h-2.5v5.7H203z M207.3,271.5
			c-0.2,0.5-0.4,1-0.7,1.4c-0.3,0.4-0.7,0.8-1.2,1.1l-0.1,0.1l-0.1,0.1l2.2,4.4h-2l-2-3.8c-0.1,0-0.3,0-0.4,0.1c-0.1,0-0.3,0-0.5,0
			h-2.3v3.8h-1.9v-12.7h4.1c0.5,0,1,0.1,1.5,0.2c0.5,0.1,0.9,0.3,1.3,0.5c0.9,0.6,1.6,1.4,1.9,2.5l0,0.2l0.1,0.2v0.1
			c0,0.1,0,0.1,0,0.2c0,0.1,0,0.1,0,0.2v0c0,0.1,0,0.1,0,0.2v0.2v0v0v0.2c0,0.1,0,0.1,0,0.2v0c0,0.1,0,0.1,0,0.2c0,0.1,0,0.1,0,0.2
			v0.1C207.4,271.3,207.4,271.4,207.3,271.5"/>
		<rect x="240.4" y="265.7" class="st0" width="1.9" height="12.7"/>
		<path class="st0" d="M279.4,276.8c0.6,0,1.2-0.1,1.8-0.4c0.5-0.2,1-0.6,1.4-1c0.4-0.4,0.7-0.9,0.9-1.5c0.2-0.6,0.3-1.2,0.3-1.8
			s-0.1-1.3-0.3-1.8c-0.2-0.6-0.5-1.1-0.9-1.5c-0.4-0.4-0.9-0.8-1.4-1c-0.5-0.2-1.1-0.4-1.8-0.4H277v9.4H279.4z M279.6,265.7
			c0.9,0,1.7,0.2,2.4,0.5c0.7,0.3,1.4,0.8,1.9,1.4c0.6,0.6,1,1.3,1.3,2c0.3,0.8,0.5,1.6,0.5,2.5c0,0.9-0.2,1.7-0.5,2.5
			c-0.3,0.8-0.7,1.4-1.3,2c-0.5,0.6-1.2,1-2,1.4c-0.8,0.3-1.6,0.5-2.4,0.5h-4.4v-12.7H279.6z"/>
		<path class="st0" d="M321.6,275.8h4.5l-2.3-5.8L321.6,275.8z M318.7,278.4l5.2-12.7l5.2,12.7h-1.9l-0.4-1H321l-0.4,1H318.7z"/>
	</g>
	<path class="st1" d="M107.1,348.7l11.2-28.6l11.2,28.6H107.1z M123.9,290h-11.4l-23,56.4v25.9h8.4l2.7-6.8h35.3l2.6,6.8h19
		L123.9,290z"/>
	<polygon class="st1" points="256.2,342.4 256.2,290 239.7,290 239.7,309.8 217.9,315.1 217.9,290 199.7,290 199.7,363.1 
		203.4,372.1 217.9,372.1 217.9,334.4 213,333.2 217.9,332 217.9,332 239.7,326.7 239.7,326.7 239.8,326.7 239.7,329.1 239.7,342.2 
		239.7,342.2 239.7,342.4 239.7,372.1 239.7,372.1 239.7,372.4 252.9,381.1 256.2,381 256.2,342.4 	"/>
	<polygon class="st1" points="390,290 375.9,290 375.3,290 371.6,297.8 353.5,336 335.2,297.7 331.5,290 316.8,290 316.8,336.9 
		316.9,344.2 316.9,402.9 320.5,403 326.8,398.9 335.1,393.5 335.1,344.2 335.1,338.7 353.5,377.9 371.7,338.9 371.7,344.2 
		371.7,377.4 386.3,387 389.9,386.9 389.9,380.3 389.9,344.2 389.9,337.6 390,306.5 390.8,306.5 399.4,293.3 399.3,290 	"/>
	<polygon class="st1" points="71.1,290.2 67.5,297.9 49.2,336.2 34.5,305.4 27.3,290.2 12.6,290.2 3.9,290.2 3.9,293.5 12.5,306.7 
		12.7,306.7 12.7,337.8 12.7,344.5 12.7,380.5 12.7,387.1 16.4,387.2 31,377.7 31,344.5 31,339.1 49.2,378.1 67.5,339 67.5,344.5 
		67.5,393.7 75.8,399.2 82.1,403.3 85.8,403.2 85.8,344.5 85.8,337.2 85.9,290.2 	"/>
	<polygon class="st1" points="278.4,335.2 274.2,333 300.2,333 302.6,316.8 278.4,316.8 278.4,306.4 308,306.4 310.5,290 261.6,290 
		261.6,363.1 265.4,372.2 311.9,372.2 311.9,355.6 278.4,355.6 	"/>
	<polygon class="st1" points="185.3,290 171.2,324.1 163.9,306.6 163.9,306.6 163.7,306 157.1,290 132.7,290 132.6,293.3 
		141.2,306.5 144.3,306.5 162,345 162,363 165.8,372.2 180.3,372.2 180.3,345 195.3,312.4 195.3,290 	"/>
	<path class="st2" d="M263.1,115.2c0.4,0.6,0.8,1.3,1.3,1.9c0.6,1,1.2,2.1,1.8,3.1c4.6,8.2,7.7,17.2,9.3,26.8
		c1.8,10.8,1.5,21.5-0.8,31.8c-2.4,10.2-6.4,19.6-12.1,27.8c-2.5,3.7-5.4,7.1-8.6,10.3V198l0.1-82.8h0.2l4.8-5.6
		C260.5,111.4,261.8,113.3,263.1,115.2 M232.1,96.1l-10.7,17.5l-21.8,35.5l-21.8-35.5l-10.8-17.5h-15.8c2.1-1.7,4.3-3.4,6.6-4.9
		c8.5-5.7,18-9.5,28.4-11.2c10.3-1.7,20.6-1.3,30.6,1.4c9.9,2.6,19,7,27.1,13.1c0.7,0.5,1.4,1.1,2.1,1.7H232.1z M123.7,172.4
		c-1.8-10.8-1.5-21.6,0.8-31.9c1.7-7.5,4.3-14.5,7.8-21c0.8-1.4,1.6-2.8,2.4-4.2c0.6-1,1.2-1.9,1.9-2.9c0.9-1.3,1.8-2.5,2.7-3.7
		l5.6,6.6h0.2l0.1,81.3v19.1c-3.8-4-7.3-8.5-10.4-13.4C129.3,193.2,125.5,183.2,123.7,172.4 M318.1,23.9c1.6-1.8,3-4.1,4-7.1
		c1-3.7,1.5-12.9-7.8-15.5c1.2,2,3.6,7.1,0.6,13.8c-0.4-1.3-1-2.5-1.8-3.5c1.4,4.8-0.2,9.9-3.3,13.8c2.4-4.1,3.4-10.1-1.5-17.7
		c-2.4-3.9-11.6-11-22.9-6c3.1,0.6,12.8,2.5,14.5,10.1c-1.6-0.7-3.4-1.1-5.2-1.3c6.2,2.7,9.9,7.8,10.9,13.3c-2-5-6.2-9.8-14.3-9.9
		c-5.1,0.5-13.9,4.1-15.3,18.1c1.9-2.6,5.1-9.9,14.2-8.1c-2.1,0.7-3.4,2.4-3.2,5c6.2-5.3,13.8-4.2,18-0.4
		c-28,3.6-47.1,26.2-50.1,30.1L237,47c-0.4-0.2-0.8-0.1-1.1,0.2l-7.8,11.9c-1.5-0.5-3.1-0.9-4.7-1.3c-13.3-3.3-27.2-3.8-41.2-1.4
		c-14.1,2.3-27,7.3-38.4,14.7c-11.4,7.4-21.1,16.7-28.7,27.5c-7.6,10.8-13.1,23.1-16.3,36.4c-3.2,13.4-3.6,27.4-1.2,41.7
		c2.3,14.1,7.3,27.1,14.6,38.6c7.4,11.5,16.5,21.3,27.2,29.1c1.9,1.4,3.8,2.7,5.8,3.9c0.8,0.5,1.5,0.9,2.3,1.4l3.1,0.1l0.5-0.2
		l21.3-10.8l0-86l27.1,44.9l27.1-44.9l0,86l21.3,10.8l0.5,0.2l3.6-0.1c0.6-0.4,1.3-0.8,1.9-1.2c0.4-0.2,0.8-0.5,1.2-0.7
		c11.5-7.4,21.2-16.7,28.9-27.5c7.6-10.8,13.1-23,16.3-36.3c3.2-13.3,3.6-27.1,1.3-41.2c-2.4-14.3-7.3-27.4-14.7-39
		c-4-6.3-8.5-12-13.4-17.2l6.7-10.3c0.2-0.4,0.1-0.8-0.2-1.1l-17.6-11.5c19.2-24.5,43.8-30.1,43.8-30.1c-1.3,6.6-4.1,11.5-12.1,12.4
		c0.8,1,3,1.4,5.3,0.5c-1.6,7.2-15.1,6.8-18.9,6.3c12.9,10.1,25.4,3.5,27.4,1.7c6.8-7.2,5.6-15,2.7-20.8c3.6,5.5,4.6,12.7,1.4,19.9
		c1.5-1.6,2.6-3.3,3.4-5.2c2.8,2.8-2.2,16.8-4.3,19.8c13.5-4.6,14.8-17.8,14.6-23c-1.7-10.2-7.3-14.5-12.6-16.1
		c5.8,0.8,11.3,4.1,13.9,9.2c0.4-1.8-0.6-3.9-1.5-4.6c6.5,0.5,8.4,9.7,9,12.3C341.6,27.3,321.6,23.6,318.1,23.9"/>
</g>
</svg>
