<?xml version="1.0" encoding="utf-8"?>
<!-- Generator: Adobe Illustrator 24.0.1, SVG Export Plug-In . SVG Version: 6.00 Build 0)  -->
<svg version="1.1" id="Layer_1" xmlns="http://www.w3.org/2000/svg" xmlns:xlink="http://www.w3.org/1999/xlink" x="0px" y="0px"
	 viewBox="0 0 403.3 403.3" style="enable-background:new 0 0 403.3 403.3;" xml:space="preserve">
<style type="text/css">
	.st0{fill:#FFFFFF;}
	.st1{fill:#FC4C02;}
	.st2{fill:#A5ACAF;}
</style>
<g>
	<path class="st0" d="M35.3,131.7v0.3c0,0.9,0.3,1.5,1.3,1.5c0.6,0,1.2-0.4,1.2-1.2c0-0.9-0.5-1.2-1.8-1.7c-1.8-0.6-2.6-1.3-2.6-3
		c0-1.9,1.2-2.9,3-2.9c1.8,0,3,0.8,3,2.6v0.3h-1.9c0-0.9-0.3-1.5-1.1-1.5c-0.9,0-1.1,0.6-1.1,1.1c0,0.6,0.2,1,1,1.3l1.5,0.7
		c1.5,0.6,1.9,1.4,1.9,2.6c0,2.1-1.3,3-3.4,3c-2.2,0-3.1-1-3.1-2.9v-0.4H35.3z"/>
	<path class="st0" d="M63.1,126.6L63.1,126.6l1,4.4h-1.9L63.1,126.6z M61.9,124.9l-2.6,9.8h2.1l0.5-2.1h2.6l0.5,2.1H67l-2.6-9.8
		H61.9z"/>
	<polygon class="st0" points="91.6,124.9 91.6,131.6 91.6,131.6 89.2,124.9 86.9,124.9 86.9,134.7 88.7,134.7 88.7,127.9 
		88.7,127.9 91.2,134.7 93.4,134.7 93.4,124.9 	"/>
	<polygon class="st0" points="136.6,124.9 136.6,134.7 138.5,134.7 138.5,130.5 141.8,130.5 141.8,128.9 138.5,128.9 138.5,126.5 
		142,126.5 142,124.9 	"/>
	<path class="st0" d="M164.1,129.2h0.8c0.9,0,1.5-0.4,1.5-1.5c0-0.9-0.5-1.4-1.4-1.4h-0.9V129.2z M162.1,124.9h3.7
		c1.6,0,2.6,0.9,2.6,2.5c0,1.3-0.5,2.2-1.6,2.4v0c1.3,0.2,1.6,0.9,1.6,3c0,1,0.1,1.6,0.4,1.8v0.1h-2.1c-0.2-0.3-0.2-0.6-0.2-1
		l-0.1-1.9c0-0.8-0.4-1.2-1.2-1.2h-1.1v4.1h-2V124.9z"/>
	<path class="st0" d="M192.1,126.6L192.1,126.6l1,4.4h-1.9L192.1,126.6z M190.9,124.9l-2.6,9.8h2.1l0.5-2.1h2.6l0.5,2.1h2.1
		l-2.6-9.8H190.9z"/>
	<polygon class="st0" points="220.6,124.9 220.6,131.6 220.6,131.6 218.2,124.9 215.9,124.9 215.9,134.7 217.7,134.7 217.7,127.9 
		217.7,127.9 220.1,134.7 222.4,134.7 222.4,124.9 	"/>
	<path class="st0" d="M247.2,128.2c0-1.4-0.3-2-1.2-2c-1,0-1.2,1-1.2,3.8c0,3,0.4,3.5,1.3,3.5c0.7,0,1.2-0.4,1.2-2.5h2
		c0,2.1-0.5,3.9-3.1,3.9c-3,0-3.3-2.1-3.3-5.1c0-3,0.4-5.1,3.3-5.1c2.8,0,3,2.1,3,3.5H247.2z"/>
	<rect x="269.7" y="124.9" class="st0" width="2" height="9.8"/>
	<path class="st0" d="M294,131.7v0.3c0,0.9,0.3,1.5,1.3,1.5c0.6,0,1.2-0.4,1.2-1.2c0-0.9-0.5-1.2-1.8-1.7c-1.8-0.6-2.6-1.3-2.6-3
		c0-1.9,1.2-2.9,3-2.9c1.8,0,3,0.8,3,2.6v0.3h-1.9c0-0.9-0.3-1.5-1.1-1.5c-0.9,0-1.1,0.6-1.1,1.1c0,0.6,0.2,1,1,1.3l1.5,0.7
		c1.5,0.6,1.9,1.4,1.9,2.6c0,2.1-1.3,3-3.4,3c-2.2,0-3.1-1-3.1-2.9v-0.4H294z"/>
	<path class="st0" d="M323,128.2c0-1.4-0.3-2-1.2-2c-1,0-1.2,1-1.2,3.8c0,3,0.4,3.5,1.3,3.5c0.7,0,1.2-0.4,1.2-2.5h2
		c0,2.1-0.5,3.9-3.1,3.9c-3,0-3.3-2.1-3.3-5.1c0-3,0.4-5.1,3.3-5.1c2.8,0,3,2.1,3,3.5H323z"/>
	<path class="st0" d="M348.5,133.5c1.2,0,1.4-1,1.4-3.6c0-2.6-0.2-3.6-1.4-3.6c-1.2,0-1.4,1-1.4,3.6
		C347.1,132.5,347.3,133.5,348.5,133.5 M348.5,124.7c3,0,3.3,2.1,3.3,5.1s-0.4,5.1-3.3,5.1c-3,0-3.3-2.1-3.3-5.1
		S345.5,124.7,348.5,124.7"/>
</g>
<g>
	<polygon class="st1" points="69.2,239.2 69.2,246.5 69.2,253.7 70.6,259.1 72,253.7 72,246.5 72,239.2 70.6,233.7 	"/>
	<polygon class="st1" points="62.5,240.5 62.5,246.5 62.5,252.3 63.9,256.7 65.3,252.3 65.3,246.5 65.3,240.5 63.9,236.1 	"/>
	<polygon class="st1" points="76.4,239.8 76.4,246.5 76.4,253.1 77.8,262.6 79.2,253.1 79.2,246.5 79.2,239.8 77.8,230.2 	"/>
	<polygon class="st1" points="84,237.8 84,246.5 84,255 85.5,263.6 86.9,255 86.9,246.5 86.9,237.8 85.5,229.2 	"/>
	<polygon class="st1" points="91.2,235.4 91.2,246.5 91.2,257.5 92.6,265.5 94.1,257.5 94.1,246.5 94.1,235.4 92.6,227.3 	"/>
	<polygon class="st1" points="98.4,233.1 98.4,246.5 98.4,259.8 99.8,267.7 101.3,259.8 101.3,246.5 101.3,233.1 99.8,225.1 	"/>
	<polygon class="st1" points="105.6,223.8 105.6,246.5 105.6,269 107,278.6 108.4,269 108.4,246.5 108.4,223.8 107,214.3 	"/>
	<polygon class="st1" points="149.6,239.2 149.6,246.5 149.6,253.7 151.1,259.1 152.5,253.7 152.5,246.5 152.5,239.2 151.1,233.7 	
		"/>
	<polygon class="st1" points="156.3,240.5 156.3,246.5 156.3,252.3 157.8,256.7 159.2,252.3 159.2,246.5 159.2,240.5 157.8,236.1 	
		"/>
	<polygon class="st1" points="142.4,239.8 142.4,246.5 142.4,253.1 143.9,262.6 145.3,253.1 145.3,246.5 145.3,239.8 143.9,230.2 	
		"/>
	<polygon class="st1" points="134.8,237.8 134.8,246.5 134.8,255 136.2,263.6 137.6,255 137.6,246.5 137.6,237.8 136.2,229.2 	"/>
	<polygon class="st1" points="127.6,235.4 127.6,246.5 127.6,257.5 129,265.5 130.5,257.5 130.5,246.5 130.5,235.4 129,227.3 	"/>
	<polygon class="st1" points="120.4,233.1 120.4,246.5 120.4,259.8 121.8,267.7 123.3,259.8 123.3,246.5 123.3,233.1 121.8,225.1 	
		"/>
	<polygon class="st1" points="113.2,223.8 113.2,246.5 113.2,269 114.7,278.6 116.1,269 116.1,246.5 116.1,223.8 114.7,214.3 	"/>
	<polygon class="st1" points="163,241.5 163,246.5 163,251.3 164.5,255 165.9,251.3 165.9,246.5 165.9,241.5 164.5,237.8 	"/>
	<polygon class="st1" points="170.2,241.9 170.2,246.5 170.2,250.9 171.6,257.4 173.1,250.9 173.1,246.5 173.1,241.9 171.6,235.5 	
		"/>
	<polygon class="st1" points="177.9,240.6 177.9,246.5 177.9,252.2 179.3,258 180.7,252.2 180.7,246.5 180.7,240.6 179.3,234.8 	"/>
	<polygon class="st1" points="185,238.9 185,246.5 185,253.9 186.5,259.3 187.9,253.9 187.9,246.5 187.9,238.9 186.5,233.5 	"/>
	<polygon class="st1" points="192.2,237.4 192.2,246.5 192.2,255.4 193.7,260.8 195.1,255.4 195.1,246.5 195.1,237.4 193.7,232 	"/>
	<polygon class="st1" points="199.4,231.1 199.4,246.5 199.4,261.7 200.9,268.1 202.3,261.7 202.3,246.5 202.3,231.1 200.9,224.7 	
		"/>
	<polygon class="st1" points="243.5,241.5 243.5,246.5 243.5,251.3 244.9,255 246.3,251.3 246.3,246.5 246.3,241.5 244.9,237.8 	"/>
	<polygon class="st1" points="236.3,241.9 236.3,246.5 236.3,250.9 237.7,257.4 239.2,250.9 239.2,246.5 239.2,241.9 237.7,235.5 	
		"/>
	<polygon class="st1" points="228.6,240.6 228.6,246.5 228.6,252.2 230.1,258 231.5,252.2 231.5,246.5 231.5,240.6 230.1,234.8 	"/>
	<polygon class="st1" points="221.4,238.9 221.4,246.5 221.4,253.9 222.9,259.3 224.3,253.9 224.3,246.5 224.3,238.9 222.9,233.5 	
		"/>
	<polygon class="st1" points="214.3,237.4 214.3,246.5 214.3,255.4 215.7,260.8 217.1,255.4 217.1,246.5 217.1,237.4 215.7,232 	"/>
	<polygon class="st1" points="207.1,231.1 207.1,246.5 207.1,261.7 208.5,268.1 209.9,261.7 209.9,246.5 209.9,231.1 208.5,224.7 	
		"/>
	<polygon class="st1" points="251.1,243.1 251.1,246.5 251.1,249.7 252.6,252.2 254,249.7 254,246.5 254,243.1 252.6,240.6 	"/>
	<polygon class="st1" points="258.3,243.4 258.3,246.5 258.3,249.5 259.7,253.8 261.2,249.5 261.2,246.5 261.2,243.4 259.7,239 	"/>
	<polygon class="st1" points="266,242.5 266,246.5 266,250.4 267.4,254.3 268.8,250.4 268.8,246.5 268.8,242.5 267.4,238.5 	"/>
	<polygon class="st1" points="273.2,241.4 273.2,246.5 273.2,251.5 274.6,255.2 276,251.5 276,246.5 276,241.4 274.6,237.7 	"/>
	<polygon class="st1" points="280.3,240.3 280.3,246.5 280.3,252.5 281.8,256.1 283.2,252.5 283.2,246.5 283.2,240.3 281.8,236.7 	
		"/>
	<polygon class="st1" points="287.5,236.1 287.5,246.5 287.5,256.7 289,261.1 290.4,256.7 290.4,246.5 290.4,236.1 289,231.7 	"/>
	<polygon class="st1" points="331.6,243.1 331.6,246.5 331.6,249.7 333,252.2 334.4,249.7 334.4,246.5 334.4,243.1 333,240.6 	"/>
	<polygon class="st1" points="324.4,243.4 324.4,246.5 324.4,249.5 325.8,253.8 327.3,249.5 327.3,246.5 327.3,243.4 325.8,239 	"/>
	<polygon class="st1" points="316.7,242.5 316.7,246.5 316.7,250.4 318.2,254.3 319.6,250.4 319.6,246.5 319.6,242.5 318.2,238.5 	
		"/>
	<polygon class="st1" points="309.5,241.4 309.5,246.5 309.5,251.5 311,255.2 312.4,251.5 312.4,246.5 312.4,241.4 311,237.7 	"/>
	<polygon class="st1" points="302.4,240.3 302.4,246.5 302.4,252.5 303.8,256.1 305.2,252.5 305.2,246.5 305.2,240.3 303.8,236.7 	
		"/>
	<polygon class="st1" points="295.2,236.1 295.2,246.5 295.2,256.7 296.6,261.1 298,256.7 298,246.5 298,236.1 296.6,231.7 	"/>
	<polygon class="st1" points="33.3,243.1 33.3,246.5 33.3,249.7 34.7,252.2 36.1,249.7 36.1,246.5 36.1,243.1 34.7,240.6 	"/>
	<polygon class="st1" points="40.4,243.4 40.4,246.5 40.4,249.5 41.9,253.8 43.3,249.5 43.3,246.5 43.3,243.4 41.9,239 	"/>
	<polygon class="st1" points="48.1,242.5 48.1,246.5 48.1,250.4 49.5,254.3 51,250.4 51,246.5 51,242.5 49.5,238.5 	"/>
	<polygon class="st1" points="55.3,241.4 55.3,246.5 55.3,251.5 56.7,255.2 58.2,251.5 58.2,246.5 58.2,241.4 56.7,237.7 	"/>
	<polygon class="st1" points="352,245.5 337.8,245.5 337.8,247.4 352,247.4 360.8,246.5 	"/>
	<polygon class="st1" points="5,246.5 13.8,247.4 28,247.4 28,245.5 13.8,245.5 	"/>
</g>
<polygon class="st2" points="124.2,171.4 97.5,171.4 97.5,146.1 74.6,146.1 74.6,218.1 98,218.1 98,189.6 124.2,189.6 124.2,218.1 
	147.1,218.1 147.1,146.1 124.2,146.1 "/>
<path class="st2" d="M400.4,246.7C392,235,363.7,194,355.3,182c8.4-12,16.7-23.8,25.1-35.9h-28c-8.3,12.2-16.9,23.9-24.8,35.7v-35.7
	h-22.9v72h22.9v-35.8c8.4,12.2,36.5,52.6,44.8,64.3H400.4z"/>
<path class="st2" d="M208.4,193c0,3.3-2.7,6-6,6h-25.4c-3.3,0-6-2.7-6-6v-22.2c0-3.3,2.7-6,6-6h25.4c3.3,0,6,2.7,6,6V193z
	 M211.8,146.1h-42.3c-10.3,0-18.6,8.3-18.6,18.6v34.8c0,10.3,8.3,18.6,18.6,18.6h42.3c10.3,0,18.6-8.3,18.6-18.6v-34.8
	C230.4,154.4,222,146.1,211.8,146.1"/>
<path class="st2" d="M233.6,164.6v35.2c0,10.3,8.1,18.4,18.4,18.4h49.4v-18.7h-41.1c-3.3,0-6.1-2.7-6.1-6v-22.5
	c0-3.3,2.8-6.1,6.1-6.1h41.1v-18.7H252C241.7,146.1,233.6,154.3,233.6,164.6"/>
<path class="st2" d="M17.8,146.1c-6.7,0.2-11.9,4.5-13.7,11.3c-1.5,5.5-1.6,11.3-0.3,16.8c1.5,6.6,5.3,10.9,12.1,12.6l30.2,8.9l0,0
	c0.6,0.4,1,1.2,1,2.1c0,0.9-0.4,1.7-1.1,2.1c-0.2,0.2-0.5,0.3-0.8,0.3H4.2v17.9c21.5,0,51.5,0,51.5,0c7.6,0,12.7-4.3,14-10.8
	c0.9-4.2,1-8.7,0.9-13c-0.3-11.1-4.8-14.9-15-17.7c-8.6-2.4-17.1-4.6-25.7-7c-1.1-0.3-2.3-0.7-3.1-1.3c-0.6-0.4-1-1.2-1-2.1
	c0-1.3,0.9-2.4,2-2.4c-0.1,0,38,0,43,0v-17.7L17.8,146.1z"/>
</svg>
