<?xml version="1.0" encoding="utf-8"?>
<!-- Generator: Adobe Illustrator 24.0.1, SVG Export Plug-In . SVG Version: 6.00 Build 0)  -->
<svg version="1.1" id="Layer_1" xmlns="http://www.w3.org/2000/svg" xmlns:xlink="http://www.w3.org/1999/xlink" x="0px" y="0px"
	 viewBox="0 0 403.3 403.3" style="enable-background:new 0 0 403.3 403.3;" xml:space="preserve">
<style type="text/css">
	.st0{fill:#FFFFFF;}
	.st1{fill:#FFD100;}
</style>
<g>
	<polygon class="st0" points="44.8,300.7 47.1,300.7 47.1,308.4 50.3,308.4 50.3,310.2 44.8,310.2 	"/>
	<g>
		<path class="st0" d="M78.2,308.9c0.9,0,1-0.8,1-3.5c0-2.6-0.1-3.5-1-3.5c-0.9,0-1,0.8-1,3.5C77.2,308.1,77.3,308.9,78.2,308.9
			 M78.2,310.4c-3,0-3.4-1.9-3.4-5c0-3,0.4-5,3.4-5c3.2,0,3.4,2.3,3.4,5C81.5,308.1,81.4,310.4,78.2,310.4"/>
		<path class="st0" d="M108.6,307.3v0.3c0,0.7,0.2,1.3,1,1.3c0.8,0,1-0.6,1-1.1c0-2.1-4.1-0.9-4.1-4.5c0-1.5,0.8-2.8,3.1-2.8
			c2.2,0,3,1.1,3,2.6v0.2h-2.2c0-0.5-0.1-0.8-0.2-1c-0.1-0.2-0.3-0.3-0.7-0.3c-0.6,0-0.9,0.3-0.9,1c0,2,4.1,1,4.1,4.4
			c0,2.2-1.2,3-3.3,3c-1.6,0-3.1-0.5-3.1-2.5v-0.6H108.6z"/>
		<path class="st0" d="M168.6,302.4L168.6,302.4l-0.8,4.2h1.6L168.6,302.4z M167.3,300.7h2.8l2.4,9.5h-2.3l-0.3-1.8h-2.3l-0.3,1.8
			h-2.3L167.3,300.7z"/>
		<polygon class="st0" points="197.2,300.7 199.8,300.7 201.7,306.9 201.7,306.9 201.7,300.7 203.8,300.7 203.8,310.2 201.2,310.2 
			199.3,303.6 199.2,303.6 199.2,310.2 197.2,310.2 		"/>
		<path class="st0" d="M233.2,303.6c0-0.6-0.1-1.6-0.9-1.6c-0.9,0-1,0.9-1,3.5c0,2.6,0.1,3.4,1,3.4c0.8,0,1-0.7,1-2v-0.3h-1.1v-1.5
			h3.1v5.1h-1.5l-0.1-0.9h0c-0.3,0.9-1.2,1.1-2.1,1.1c-2.4,0-2.8-1.8-2.8-4.8c0-3.1,0.2-5.2,3.4-5.2c2.9,0,3,2,3,3.1H233.2z"/>
		<polygon class="st0" points="260.7,300.7 266.2,300.7 266.2,302.5 262.9,302.5 262.9,304.4 266,304.4 266,306.2 262.9,306.2 
			262.9,308.4 266.3,308.4 266.3,310.2 260.7,310.2 		"/>
		<polygon class="st0" points="291.4,300.7 293.7,300.7 293.7,308.4 296.9,308.4 296.9,310.2 291.4,310.2 		"/>
		<polygon class="st0" points="321.6,300.7 327.2,300.7 327.2,302.5 323.9,302.5 323.9,304.4 327,304.4 327,306.2 323.9,306.2 
			323.9,308.4 327.3,308.4 327.3,310.2 321.6,310.2 		"/>
		<path class="st0" d="M354.2,307.3v0.3c0,0.7,0.2,1.3,1,1.3c0.8,0,1-0.6,1-1.1c0-2.1-4.1-0.9-4.1-4.5c0-1.5,0.8-2.8,3.1-2.8
			c2.2,0,3,1.1,3,2.6v0.2h-2.2c0-0.5-0.1-0.8-0.2-1c-0.1-0.2-0.3-0.3-0.7-0.3c-0.6,0-0.9,0.3-0.9,1c0,2,4.1,1,4.1,4.4
			c0,2.2-1.2,3-3.3,3c-1.6,0-3.1-0.5-3.1-2.5v-0.6H354.2z"/>
		<polygon class="st1" points="314.6,61.6 245.9,124.9 201.6,100.8 157.5,124.8 88.7,61.6 73.5,37.2 93.2,102.2 97.8,109 
			119.1,130.7 120,131.9 102.5,127.5 110.1,152 112.3,154.2 134.7,172.2 135.4,172.9 118.9,171.5 133,192.8 134.3,193.8 
			147.9,202.2 150.3,205.6 153.9,219.2 157.8,225.6 183.9,263.6 184.7,264.5 194.8,270.9 196.2,271.7 191.3,259.2 159,178.3 
			157.7,168.6 158.2,168.6 189.5,175.2 190.5,176.8 191.2,186.3 198.6,206.4 201.6,215.4 204.6,206.4 212,186.3 212.8,176.8 
			213.8,175.2 245.1,168.6 245.6,168.6 244.2,178.3 212,259.2 207.1,271.7 208.5,270.9 218.6,264.5 219.4,263.6 245.5,225.6 
			249.4,219.2 253,205.6 255.4,202.2 269,193.8 270.3,192.8 284.4,171.5 267.9,172.9 268.5,172.2 291,154.2 293.2,152 300.7,127.5 
			283.3,131.9 284.2,130.7 305.4,109 310.1,102.2 329.8,37.2 		"/>
		<polygon class="st1" points="133.4,321.8 133.4,366 160.7,366 160.7,358.8 141,358.8 141,321.8 		"/>
		<rect x="191.8" y="321.9" class="st1" width="7.4" height="43.6"/>
		<polygon class="st1" points="363.9,321.8 363.9,328.9 378.3,328.9 378.3,366 385.5,366 385.5,328.9 399.9,328.9 399.9,321.8 		"/>
		<path class="st1" d="M94.2,323.9c-0.6-1.3-1.1-2.1-2.9-2.1h-4.7c-1.8,0-2.3,0.8-2.9,2.1c-4.3,9.8-17,37.9-18.9,42.1h6.5
			c1.7,0,2.3-0.3,3-1.9C79,353.5,89,330.6,89,330.6s10,22.8,14.7,33.6c0.7,1.5,1.2,1.9,3,1.9h6.5C111.2,361.8,98.5,333.7,94.2,323.9
			"/>
		<path class="st1" d="M250.6,323.9c-0.6-1.3-1.1-2.1-2.9-2.1H243c-1.8,0-2.3,0.8-2.9,2.1c-4.3,9.8-17,37.9-18.9,42.1h6.5
			c1.7,0,2.3-0.3,3-1.9c4.8-10.7,14.7-33.6,14.7-33.6s10,22.8,14.7,33.6c0.7,1.5,1.2,1.9,3,1.9h6.5
			C267.6,361.8,255,333.7,250.6,323.9"/>
		<path class="st1" d="M42.3,323.6c-4.8,10.7-14.7,33.5-14.7,33.5s-10-22.8-14.7-33.5c-0.7-1.5-1.3-1.9-3-1.9H3.4
			c1.9,4.3,14.6,32.4,18.9,42.1c0.6,1.3,1.1,2.1,2.9,2.1h4.7c1.8,0,2.3-0.8,2.9-2.1c4.3-9.8,17-37.9,18.9-42.1h-6.5
			C43.6,321.8,43,322.1,42.3,323.6"/>
		<path class="st1" d="M329.6,353.8l-21.4-31.1c-0.6-0.8-1.3-0.9-1.3-0.9h-9v44.3h7.7v-34.6l24,34.6h7.5v-44.2h-7.4V353.8z"/>
	</g>
</g>
</svg>
